# xmcd
#
# Track frame offsets: 
#        150
#        1984
#        4741
#        8035
#        9713
#        13169
#        17030
#        20432
#        21536
#        22380
#        24860
#        27337
#        33125
#        39456
#        45805
#        50057
#        55706
#        61348
#        67000
#        72934
#        80039
#        85785
#        91549
#        97581
#        103620
#        109861
#        116102
#        121914
#        127770
#        133701
#        143759
#        154198
#        173744
#        174277
#        174851
#        186794
#        199024
#        228039
#        243983
#        257325
#        268484
#        290179
#        311041
#
# Disc length: 4447 seconds
#
# Revision: 0
# Processed by: cddbd v1.5.1PL2 Copyright (c) Steve Scherf et al.
# Submitted via: ExactAudioCopy v0.95b3
#
DISCID=2d115d2b
DTITLE=Guitar College - Special Blues 2
DYEAR=2004
DGENRE=Blues
TTITLE0=01 - (Guitar College Intro)
TTITLE1=02 - Standart Tune
TTITLE2=03 - 12-тактовый блюз 1
TTITLE3=04 - 12-тактовый блюз 2
TTITLE4=05 - 12-тактовый блюз 3
TTITLE5=06 - 12-тактовый блюз 4
TTITLE6=07 - 12-тактовый блюз 5
TTITLE7=08 - Акустический блюз 1
TTITLE8=09 - Акустический блюз 2
TTITLE9=10 - Акустический блюз 3
TTITLE10=11 - Акустический блюз 4
TTITLE11=12 - Фанк-блюз 1
TTITLE12=13 - Фанк-блюз 2
TTITLE13=14 - Фанк-блюз 3
TTITLE14=15 - Фанк-блюз 4
TTITLE15=16 - Шаффл-блюз 1
TTITLE16=17 - Шаффл-блюз 2
TTITLE17=18 - Шаффл-блюз 3
TTITLE18=19 - Шаффл-блюз 4
TTITLE19=20 - Шаффл-блюз 5
TTITLE20=21 - Шаффл-блюз 6
TTITLE21=22 - Шаффл-блюз 7
TTITLE22=23 - Медленный блюз 1
TTITLE23=24 - Медленный блюз 2
TTITLE24=25 - Медленный блюз 3
TTITLE25=26 - Медленный блюз 4
TTITLE26=27 - Медленный блюз 5
TTITLE27=28 - Соло в стиле джаз-блюз 1
TTITLE28=29 - Соло в стиле джаз-блюз 2
TTITLE29=30 - Виртуальный джем
TTITLE30=31 - Виртуальный джем 2
TTITLE31=32 - B.B.King - Paying Cost to Be the Boss 1
TTITLE32=33 - B.B.King - Paying Cost to Be the Boss 2
TTITLE33=34 - B.B.King - Paying Cost to Be the Boss 3
TTITLE34=35 - F.King - San-Ho-Zay
TTITLE35=36 - F.King - San-Ho-Zay [-]
TTITLE36=37 - J.Beck - Brush with the Blues
TTITLE37=38 - J.Beck - Brush with the Blues [-]
TTITLE38=39 - G.Moore - Walking By Myself
TTITLE39=40 - G.Moore - Walking By Myself [-]
TTITLE40=41 - D.Gatton - Harlem Nocturne
TTITLE41=42 - D.Gatton - Harlem Nocturne [-]
TTITLE42=43 - (Guitar College Advertisement)
EXTD=
EXTT0=
EXTT1=
EXTT2=
EXTT3=
EXTT4=
EXTT5=
EXTT6=
EXTT7=
EXTT8=
EXTT9=
EXTT10=
EXTT11=
EXTT12=
EXTT13=
EXTT14=
EXTT15=
EXTT16=
EXTT17=
EXTT18=
EXTT19=
EXTT20=
EXTT21=
EXTT22=
EXTT23=
EXTT24=
EXTT25=
EXTT26=
EXTT27=
EXTT28=
EXTT29=
EXTT30=
EXTT31=
EXTT32=
EXTT33=
EXTT34=
EXTT35=
EXTT36=
EXTT37=
EXTT38=
EXTT39=
EXTT40=
EXTT41=
EXTT42=
PLAYORDER=
